<svg width="351" height="717" viewBox="0 0 351 717" fill="none" xmlns="http://www.w3.org/2000/svg">
<g clip-path="url(#clip0_202_30)">
<rect width="349.599" height="716" transform="translate(0.757416 0.31488) rotate(-0.0515102)" fill="white"/>
<g clip-path="url(#clip1_202_30)" filter="url(#filter0_d_202_30)">
<path d="M351.471 443.784C351.365 430.307 343.798 417.303 331.293 409.108L236.532 355.942L174.242 318.694L80.3214 266.973C68.6569 260.223 61.0902 247.219 60.1435 232.297L61.5569 148.31C61.451 134.834 68.8059 120.883 81.8093 113.317L154.051 71.2793C165.609 64.5533 180.531 63.6067 194.481 70.9616L266.754 112.071C278.419 118.821 285.985 131.825 286.932 146.746L285.519 230.733C285.624 244.21 278.27 258.16 265.266 265.727L217.587 293.472L281.321 329.879L330.446 301.293C342.004 294.567 350.2 282.062 350.698 266.3L351.345 111.198C351.239 97.7215 343.673 84.7181 331.167 76.5224L192.874 -1.59762C180.369 -9.79326 165.447 -8.84659 153.889 -2.12061L18.0747 76.9097C6.51608 83.6357 -1.67957 96.141 -2.17773 111.903L-1.98414 268.45C-1.87823 281.926 5.6885 294.93 18.1938 303.125L110.669 355.687L174.404 392.094L266.88 444.656C278.544 451.407 286.111 464.41 287.058 479.332L287.089 562.478C287.195 575.955 279.84 589.905 266.837 597.472L194.595 639.509C183.037 646.235 168.115 647.182 154.165 639.827L82.7327 600.163C71.0682 593.412 63.5015 580.408 62.5548 565.487L62.5234 482.34C62.4174 468.864 69.7723 454.914 82.7758 447.347L129.01 420.443L65.2757 384.036L17.5963 411.781C6.03768 418.507 -2.15796 431.012 -2.65612 446.774L-2.46248 603.32C-2.35656 616.797 5.21016 629.801 17.7155 637.996L153.723 715.512C165.387 722.263 181.15 722.761 194.153 715.195L331.412 635.324C342.971 628.598 351.166 616.092 351.664 600.33L351.471 443.784Z" fill="#8247E5"/>
</g>
</g>
<defs>
<filter id="filter0_d_202_30" x="-232.991" y="-60.9729" width="814.865" height="844.465" filterUnits="userSpaceOnUse" color-interpolation-filters="sRGB">
<feFlood flood-opacity="0" result="BackgroundImageFix"/>
<feColorMatrix in="SourceAlpha" type="matrix" values="0 0 0 0 0 0 0 0 0 0 0 0 0 0 0 0 0 0 127 0" result="hardAlpha"/>
<feOffset dy="4"/>
<feGaussianBlur stdDeviation="2"/>
<feComposite in2="hardAlpha" operator="out"/>
<feColorMatrix type="matrix" values="0 0 0 0 0 0 0 0 0 0 0 0 0 0 0 0 0 0 0.25 0"/>
<feBlend mode="normal" in2="BackgroundImageFix" result="effect1_dropShadow_202_30"/>
<feBlend mode="normal" in="SourceGraphic" in2="effect1_dropShadow_202_30" result="shape"/>
</filter>
<clipPath id="clip0_202_30">
<rect width="349.599" height="716" fill="white" transform="translate(0.757416 0.31488) rotate(-0.0515102)"/>
</clipPath>
<clipPath id="clip1_202_30">
<rect width="641.91" height="560" fill="white" transform="translate(255.027 -60.9729) rotate(59.8048)"/>
</clipPath>
</defs>
</svg>
